<mxfile host="Electron" modified="2023-10-16T07:51:19.187Z" agent="Mozilla/5.0 (X11; Linux x86_64) AppleWebKit/537.36 (KHTML, like Gecko) draw.io/22.0.2 Chrome/114.0.5735.289 Electron/25.8.4 Safari/537.36" etag="ivRpjfmPEsbVtiPB_986" version="22.0.2" type="device">
  <diagram name="Page-1" id="2YBvvXClWsGukQMizWep">
    <mxGraphModel dx="1434" dy="967" grid="1" gridSize="10" guides="1" tooltips="1" connect="1" arrows="1" fold="1" page="1" pageScale="1" pageWidth="850" pageHeight="1100" math="0" shadow="0">
      <root>
        <mxCell id="0" />
        <mxCell id="1" parent="0" />
        <mxCell id="_NXr81rbV8xkHX5rc7AV-45" value="Проверка данных" style="html=1;verticalAlign=bottom;endArrow=block;curved=0;rounded=0;" parent="1" edge="1">
          <mxGeometry width="80" relative="1" as="geometry">
            <mxPoint x="970" y="423.5" as="sourcePoint" />
            <mxPoint x="1505.0000000000005" y="423.5" as="targetPoint" />
          </mxGeometry>
        </mxCell>
        <mxCell id="_NXr81rbV8xkHX5rc7AV-42" value="Данные некорректны" style="html=1;verticalAlign=bottom;endArrow=open;dashed=1;endSize=8;curved=0;rounded=0;" parent="1" edge="1">
          <mxGeometry relative="1" as="geometry">
            <mxPoint x="1505.0000000000005" y="304.65999999999985" as="sourcePoint" />
            <mxPoint x="970" y="304.65999999999985" as="targetPoint" />
          </mxGeometry>
        </mxCell>
        <mxCell id="_NXr81rbV8xkHX5rc7AV-41" value="Данные корректны" style="html=1;verticalAlign=bottom;endArrow=open;dashed=1;endSize=8;curved=0;rounded=0;" parent="1" edge="1">
          <mxGeometry relative="1" as="geometry">
            <mxPoint x="1505.0000000000005" y="247.9999999999999" as="sourcePoint" />
            <mxPoint x="970" y="247.9999999999999" as="targetPoint" />
          </mxGeometry>
        </mxCell>
        <mxCell id="_NXr81rbV8xkHX5rc7AV-36" value="Проверка данных" style="html=1;verticalAlign=bottom;endArrow=block;curved=0;rounded=0;exitX=0.997;exitY=0.26;exitDx=0;exitDy=0;exitPerimeter=0;" parent="1" edge="1">
          <mxGeometry width="80" relative="1" as="geometry">
            <mxPoint x="969.9699999999998" y="211.9999999999999" as="sourcePoint" />
            <mxPoint x="1505.0000000000005" y="211.9999999999999" as="targetPoint" />
          </mxGeometry>
        </mxCell>
        <mxCell id="_NXr81rbV8xkHX5rc7AV-1" value="" style="shape=umlLifeline;perimeter=lifelinePerimeter;whiteSpace=wrap;html=1;container=1;dropTarget=0;collapsible=0;recursiveResize=0;outlineConnect=0;portConstraint=eastwest;newEdgeStyle={&quot;curved&quot;:0,&quot;rounded&quot;:0};participant=umlActor;" parent="1" vertex="1">
          <mxGeometry x="750" y="70" width="20" height="330" as="geometry" />
        </mxCell>
        <mxCell id="_NXr81rbV8xkHX5rc7AV-2" value="Пользователь" style="text;html=1;strokeColor=none;fillColor=none;align=center;verticalAlign=middle;whiteSpace=wrap;rounded=0;" parent="1" vertex="1">
          <mxGeometry x="730" y="30" width="60" height="30" as="geometry" />
        </mxCell>
        <mxCell id="_NXr81rbV8xkHX5rc7AV-3" value="" style="shape=umlLifeline;perimeter=lifelinePerimeter;whiteSpace=wrap;html=1;container=1;dropTarget=0;collapsible=0;recursiveResize=0;outlineConnect=0;portConstraint=eastwest;newEdgeStyle={&quot;curved&quot;:0,&quot;rounded&quot;:0};participant=umlActor;" parent="1" vertex="1">
          <mxGeometry x="1160" y="70" width="20" height="1010" as="geometry" />
        </mxCell>
        <mxCell id="_NXr81rbV8xkHX5rc7AV-22" value="" style="html=1;points=[[0,0,0,0,5],[0,1,0,0,-5],[1,0,0,0,5],[1,1,0,0,-5]];perimeter=orthogonalPerimeter;outlineConnect=0;targetShapes=umlLifeline;portConstraint=eastwest;newEdgeStyle={&quot;curved&quot;:0,&quot;rounded&quot;:0};" parent="_NXr81rbV8xkHX5rc7AV-3" vertex="1">
          <mxGeometry x="5" y="70" width="10" height="900" as="geometry" />
        </mxCell>
        <mxCell id="_NXr81rbV8xkHX5rc7AV-6" value="Модератор" style="text;html=1;strokeColor=none;fillColor=none;align=center;verticalAlign=middle;whiteSpace=wrap;rounded=0;" parent="1" vertex="1">
          <mxGeometry x="1140" y="30" width="60" height="30" as="geometry" />
        </mxCell>
        <mxCell id="_NXr81rbV8xkHX5rc7AV-10" value="Par" style="shape=umlFrame;whiteSpace=wrap;html=1;pointerEvents=0;" parent="1" vertex="1">
          <mxGeometry x="660" y="120" width="910" height="440" as="geometry" />
        </mxCell>
        <mxCell id="_NXr81rbV8xkHX5rc7AV-11" value="" style="shape=umlLifeline;perimeter=lifelinePerimeter;whiteSpace=wrap;html=1;container=1;dropTarget=0;collapsible=0;recursiveResize=0;outlineConnect=0;portConstraint=eastwest;newEdgeStyle={&quot;curved&quot;:0,&quot;rounded&quot;:0};participant=umlBoundary;" parent="1" vertex="1">
          <mxGeometry x="840" y="70" width="50" height="1020" as="geometry" />
        </mxCell>
        <mxCell id="_NXr81rbV8xkHX5rc7AV-23" value="" style="html=1;points=[[0,0,0,0,5],[0,1,0,0,-5],[1,0,0,0,5],[1,1,0,0,-5]];perimeter=orthogonalPerimeter;outlineConnect=0;targetShapes=umlLifeline;portConstraint=eastwest;newEdgeStyle={&quot;curved&quot;:0,&quot;rounded&quot;:0};" parent="_NXr81rbV8xkHX5rc7AV-11" vertex="1">
          <mxGeometry x="20" y="80" width="10" height="940" as="geometry" />
        </mxCell>
        <mxCell id="_NXr81rbV8xkHX5rc7AV-12" value="" style="shape=umlLifeline;perimeter=lifelinePerimeter;whiteSpace=wrap;html=1;container=1;dropTarget=0;collapsible=0;recursiveResize=0;outlineConnect=0;portConstraint=eastwest;newEdgeStyle={&quot;curved&quot;:0,&quot;rounded&quot;:0};participant=umlControl;" parent="1" vertex="1">
          <mxGeometry x="1255" y="70" width="40" height="1030" as="geometry" />
        </mxCell>
        <mxCell id="_NXr81rbV8xkHX5rc7AV-55" value="" style="html=1;points=[[0,0,0,0,5],[0,1,0,0,-5],[1,0,0,0,5],[1,1,0,0,-5]];perimeter=orthogonalPerimeter;outlineConnect=0;targetShapes=umlLifeline;portConstraint=eastwest;newEdgeStyle={&quot;curved&quot;:0,&quot;rounded&quot;:0};" parent="_NXr81rbV8xkHX5rc7AV-12" vertex="1">
          <mxGeometry x="15" y="610" width="10" height="120" as="geometry" />
        </mxCell>
        <mxCell id="_NXr81rbV8xkHX5rc7AV-69" value="" style="html=1;points=[[0,0,0,0,5],[0,1,0,0,-5],[1,0,0,0,5],[1,1,0,0,-5]];perimeter=orthogonalPerimeter;outlineConnect=0;targetShapes=umlLifeline;portConstraint=eastwest;newEdgeStyle={&quot;curved&quot;:0,&quot;rounded&quot;:0};" parent="_NXr81rbV8xkHX5rc7AV-12" vertex="1">
          <mxGeometry x="15" y="800" width="10" height="180" as="geometry" />
        </mxCell>
        <mxCell id="_NXr81rbV8xkHX5rc7AV-13" value="Пользовательское&lt;br&gt;окно&amp;nbsp;" style="text;html=1;strokeColor=none;fillColor=none;align=center;verticalAlign=middle;whiteSpace=wrap;rounded=0;" parent="1" vertex="1">
          <mxGeometry x="835" y="30" width="60" height="30" as="geometry" />
        </mxCell>
        <mxCell id="_NXr81rbV8xkHX5rc7AV-14" value="" style="shape=umlLifeline;perimeter=lifelinePerimeter;whiteSpace=wrap;html=1;container=1;dropTarget=0;collapsible=0;recursiveResize=0;outlineConnect=0;portConstraint=eastwest;newEdgeStyle={&quot;curved&quot;:0,&quot;rounded&quot;:0};participant=umlEntity;" parent="1" vertex="1">
          <mxGeometry x="1490" y="70" width="40" height="1010" as="geometry" />
        </mxCell>
        <mxCell id="_NXr81rbV8xkHX5rc7AV-34" value="" style="html=1;points=[[0,0,0,0,5],[0,1,0,0,-5],[1,0,0,0,5],[1,1,0,0,-5]];perimeter=orthogonalPerimeter;outlineConnect=0;targetShapes=umlLifeline;portConstraint=eastwest;newEdgeStyle={&quot;curved&quot;:0,&quot;rounded&quot;:0};" parent="_NXr81rbV8xkHX5rc7AV-14" vertex="1">
          <mxGeometry x="15" y="120" width="10" height="130" as="geometry" />
        </mxCell>
        <mxCell id="_NXr81rbV8xkHX5rc7AV-35" value="" style="html=1;points=[[0,0,0,0,5],[0,1,0,0,-5],[1,0,0,0,5],[1,1,0,0,-5]];perimeter=orthogonalPerimeter;outlineConnect=0;targetShapes=umlLifeline;portConstraint=eastwest;newEdgeStyle={&quot;curved&quot;:0,&quot;rounded&quot;:0};" parent="_NXr81rbV8xkHX5rc7AV-14" vertex="1">
          <mxGeometry x="15" y="300" width="10" height="170" as="geometry" />
        </mxCell>
        <mxCell id="_NXr81rbV8xkHX5rc7AV-57" value="" style="html=1;points=[[0,0,0,0,5],[0,1,0,0,-5],[1,0,0,0,5],[1,1,0,0,-5]];perimeter=orthogonalPerimeter;outlineConnect=0;targetShapes=umlLifeline;portConstraint=eastwest;newEdgeStyle={&quot;curved&quot;:0,&quot;rounded&quot;:0};" parent="_NXr81rbV8xkHX5rc7AV-14" vertex="1">
          <mxGeometry x="15" y="680" width="10" height="40" as="geometry" />
        </mxCell>
        <mxCell id="_NXr81rbV8xkHX5rc7AV-15" value="Подсистема управления доступа" style="text;html=1;strokeColor=none;fillColor=none;align=center;verticalAlign=middle;whiteSpace=wrap;rounded=0;" parent="1" vertex="1">
          <mxGeometry x="1245" y="30" width="60" height="30" as="geometry" />
        </mxCell>
        <mxCell id="_NXr81rbV8xkHX5rc7AV-16" value="База данных" style="text;html=1;strokeColor=none;fillColor=none;align=center;verticalAlign=middle;whiteSpace=wrap;rounded=0;" parent="1" vertex="1">
          <mxGeometry x="1480" y="30" width="60" height="30" as="geometry" />
        </mxCell>
        <mxCell id="_NXr81rbV8xkHX5rc7AV-17" value="" style="shape=umlLifeline;perimeter=lifelinePerimeter;whiteSpace=wrap;html=1;container=1;dropTarget=0;collapsible=0;recursiveResize=0;outlineConnect=0;portConstraint=eastwest;newEdgeStyle={&quot;curved&quot;:0,&quot;rounded&quot;:0};participant=umlControl;" parent="1" vertex="1">
          <mxGeometry x="945" y="70" width="40" height="540" as="geometry" />
        </mxCell>
        <mxCell id="_NXr81rbV8xkHX5rc7AV-25" value="" style="html=1;points=[[0,0,0,0,5],[0,1,0,0,-5],[1,0,0,0,5],[1,1,0,0,-5]];perimeter=orthogonalPerimeter;outlineConnect=0;targetShapes=umlLifeline;portConstraint=eastwest;newEdgeStyle={&quot;curved&quot;:0,&quot;rounded&quot;:0};" parent="_NXr81rbV8xkHX5rc7AV-17" vertex="1">
          <mxGeometry x="15" y="130" width="10" height="120" as="geometry" />
        </mxCell>
        <mxCell id="_NXr81rbV8xkHX5rc7AV-29" value="" style="html=1;points=[[0,0,0,0,5],[0,1,0,0,-5],[1,0,0,0,5],[1,1,0,0,-5]];perimeter=orthogonalPerimeter;outlineConnect=0;targetShapes=umlLifeline;portConstraint=eastwest;newEdgeStyle={&quot;curved&quot;:0,&quot;rounded&quot;:0};" parent="_NXr81rbV8xkHX5rc7AV-17" vertex="1">
          <mxGeometry x="15" y="340" width="10" height="130" as="geometry" />
        </mxCell>
        <mxCell id="_NXr81rbV8xkHX5rc7AV-52" value="" style="shape=umlDestroy;whiteSpace=wrap;html=1;strokeWidth=3;targetShapes=umlLifeline;" parent="_NXr81rbV8xkHX5rc7AV-17" vertex="1">
          <mxGeometry x="5" y="520" width="30" height="30" as="geometry" />
        </mxCell>
        <mxCell id="_NXr81rbV8xkHX5rc7AV-18" value="Подсистема авторизации" style="text;html=1;strokeColor=none;fillColor=none;align=center;verticalAlign=middle;whiteSpace=wrap;rounded=0;" parent="1" vertex="1">
          <mxGeometry x="935" y="30" width="60" height="30" as="geometry" />
        </mxCell>
        <mxCell id="_NXr81rbV8xkHX5rc7AV-19" value="" style="shape=umlLifeline;perimeter=lifelinePerimeter;whiteSpace=wrap;html=1;container=1;dropTarget=0;collapsible=0;recursiveResize=0;outlineConnect=0;portConstraint=eastwest;newEdgeStyle={&quot;curved&quot;:0,&quot;rounded&quot;:0};participant=umlBoundary;" parent="1" vertex="1">
          <mxGeometry x="1045" y="70" width="50" height="1020" as="geometry" />
        </mxCell>
        <mxCell id="_NXr81rbV8xkHX5rc7AV-24" value="" style="html=1;points=[[0,0,0,0,5],[0,1,0,0,-5],[1,0,0,0,5],[1,1,0,0,-5]];perimeter=orthogonalPerimeter;outlineConnect=0;targetShapes=umlLifeline;portConstraint=eastwest;newEdgeStyle={&quot;curved&quot;:0,&quot;rounded&quot;:0};" parent="_NXr81rbV8xkHX5rc7AV-19" vertex="1">
          <mxGeometry x="20" y="70" width="10" height="950" as="geometry" />
        </mxCell>
        <mxCell id="_NXr81rbV8xkHX5rc7AV-20" value="Окно для модераторов" style="text;html=1;strokeColor=none;fillColor=none;align=center;verticalAlign=middle;whiteSpace=wrap;rounded=0;" parent="1" vertex="1">
          <mxGeometry x="1040" y="30" width="60" height="30" as="geometry" />
        </mxCell>
        <mxCell id="_NXr81rbV8xkHX5rc7AV-21" value="" style="html=1;points=[[0,0,0,0,5],[0,1,0,0,-5],[1,0,0,0,5],[1,1,0,0,-5]];perimeter=orthogonalPerimeter;outlineConnect=0;targetShapes=umlLifeline;portConstraint=eastwest;newEdgeStyle={&quot;curved&quot;:0,&quot;rounded&quot;:0};" parent="1" vertex="1">
          <mxGeometry x="755" y="140" width="10" height="950" as="geometry" />
        </mxCell>
        <mxCell id="_NXr81rbV8xkHX5rc7AV-26" value="Вход" style="html=1;verticalAlign=bottom;endArrow=block;curved=0;rounded=0;entryX=0;entryY=0;entryDx=0;entryDy=5;entryPerimeter=0;" parent="1" source="_NXr81rbV8xkHX5rc7AV-21" target="_NXr81rbV8xkHX5rc7AV-23" edge="1">
          <mxGeometry width="80" relative="1" as="geometry">
            <mxPoint x="1080" y="250" as="sourcePoint" />
            <mxPoint x="1160" y="250" as="targetPoint" />
          </mxGeometry>
        </mxCell>
        <mxCell id="_NXr81rbV8xkHX5rc7AV-27" value="Вход" style="html=1;verticalAlign=bottom;endArrow=block;curved=0;rounded=0;" parent="1" edge="1">
          <mxGeometry width="80" relative="1" as="geometry">
            <mxPoint x="1165" y="385.9999999999999" as="sourcePoint" />
            <mxPoint x="1075" y="385.9999999999999" as="targetPoint" />
          </mxGeometry>
        </mxCell>
        <mxCell id="_NXr81rbV8xkHX5rc7AV-28" value="" style="endArrow=none;dashed=1;html=1;rounded=0;exitX=-0.005;exitY=0.503;exitDx=0;exitDy=0;exitPerimeter=0;entryX=1.004;entryY=0.498;entryDx=0;entryDy=0;entryPerimeter=0;" parent="1" source="_NXr81rbV8xkHX5rc7AV-10" target="_NXr81rbV8xkHX5rc7AV-10" edge="1">
          <mxGeometry width="50" height="50" relative="1" as="geometry">
            <mxPoint x="1090" y="280" as="sourcePoint" />
            <mxPoint x="1140" y="230" as="targetPoint" />
          </mxGeometry>
        </mxCell>
        <mxCell id="_NXr81rbV8xkHX5rc7AV-30" value="Передача данных" style="html=1;verticalAlign=bottom;endArrow=block;curved=0;rounded=0;entryX=0;entryY=0;entryDx=0;entryDy=5;entryPerimeter=0;" parent="1" edge="1">
          <mxGeometry width="80" relative="1" as="geometry">
            <mxPoint x="870" y="211.9999999999999" as="sourcePoint" />
            <mxPoint x="960" y="211.9999999999999" as="targetPoint" />
          </mxGeometry>
        </mxCell>
        <mxCell id="_NXr81rbV8xkHX5rc7AV-31" value="Передача данных" style="html=1;verticalAlign=bottom;endArrow=block;curved=0;rounded=0;" parent="1" edge="1">
          <mxGeometry width="80" relative="1" as="geometry">
            <mxPoint x="1065" y="413" as="sourcePoint" />
            <mxPoint x="970" y="413" as="targetPoint" />
          </mxGeometry>
        </mxCell>
        <mxCell id="_NXr81rbV8xkHX5rc7AV-32" value="Пропуск в систему" style="html=1;verticalAlign=bottom;endArrow=open;dashed=1;endSize=8;curved=0;rounded=0;" parent="1" target="_NXr81rbV8xkHX5rc7AV-23" edge="1">
          <mxGeometry relative="1" as="geometry">
            <mxPoint x="960" y="256.9999999999999" as="sourcePoint" />
            <mxPoint x="765" y="256.9999999999999" as="targetPoint" />
          </mxGeometry>
        </mxCell>
        <mxCell id="_NXr81rbV8xkHX5rc7AV-33" value="Пропуск в систему" style="html=1;verticalAlign=bottom;endArrow=open;dashed=1;endSize=8;curved=0;rounded=0;" parent="1" edge="1">
          <mxGeometry relative="1" as="geometry">
            <mxPoint x="970" y="466.9999999999999" as="sourcePoint" />
            <mxPoint x="1065" y="467" as="targetPoint" />
          </mxGeometry>
        </mxCell>
        <mxCell id="_NXr81rbV8xkHX5rc7AV-37" value="alt" style="shape=umlFrame;whiteSpace=wrap;html=1;pointerEvents=0;" parent="1" vertex="1">
          <mxGeometry x="680" y="220" width="850" height="110" as="geometry" />
        </mxCell>
        <mxCell id="_NXr81rbV8xkHX5rc7AV-38" value="" style="endArrow=none;dashed=1;html=1;rounded=0;exitX=-0.002;exitY=0.641;exitDx=0;exitDy=0;exitPerimeter=0;entryX=1.005;entryY=0.645;entryDx=0;entryDy=0;entryPerimeter=0;" parent="1" edge="1">
          <mxGeometry width="50" height="50" relative="1" as="geometry">
            <mxPoint x="678.2999999999997" y="284.5099999999999" as="sourcePoint" />
            <mxPoint x="1534.25" y="284.94999999999993" as="targetPoint" />
          </mxGeometry>
        </mxCell>
        <mxCell id="_NXr81rbV8xkHX5rc7AV-39" value="&lt;span style=&quot;font-size: 10px;&quot;&gt;Логин и пароль&lt;br&gt;&amp;nbsp;корректны&lt;/span&gt;" style="text;html=1;align=center;verticalAlign=middle;resizable=0;points=[];autosize=1;strokeColor=none;fillColor=none;" parent="1" vertex="1">
          <mxGeometry x="675" y="245" width="90" height="40" as="geometry" />
        </mxCell>
        <mxCell id="_NXr81rbV8xkHX5rc7AV-40" value="&lt;span style=&quot;font-size: 10px;&quot;&gt;Логин и пароль&lt;br&gt;&amp;nbsp;не корректны&lt;/span&gt;" style="text;html=1;align=center;verticalAlign=middle;resizable=0;points=[];autosize=1;strokeColor=none;fillColor=none;" parent="1" vertex="1">
          <mxGeometry x="675" y="285" width="90" height="40" as="geometry" />
        </mxCell>
        <mxCell id="_NXr81rbV8xkHX5rc7AV-43" value="Вывод ошибка" style="html=1;verticalAlign=bottom;endArrow=open;dashed=1;endSize=8;curved=0;rounded=0;" parent="1" target="_NXr81rbV8xkHX5rc7AV-23" edge="1">
          <mxGeometry relative="1" as="geometry">
            <mxPoint x="960" y="306.9999999999999" as="sourcePoint" />
            <mxPoint x="765" y="306.9999999999999" as="targetPoint" />
          </mxGeometry>
        </mxCell>
        <mxCell id="_NXr81rbV8xkHX5rc7AV-44" value="alt" style="shape=umlFrame;whiteSpace=wrap;html=1;pointerEvents=0;" parent="1" vertex="1">
          <mxGeometry x="820" y="430" width="710" height="90" as="geometry" />
        </mxCell>
        <mxCell id="_NXr81rbV8xkHX5rc7AV-46" value="" style="endArrow=none;dashed=1;html=1;rounded=0;exitX=-0.001;exitY=0.554;exitDx=0;exitDy=0;exitPerimeter=0;entryX=1.004;entryY=0.539;entryDx=0;entryDy=0;entryPerimeter=0;" parent="1" source="_NXr81rbV8xkHX5rc7AV-44" target="_NXr81rbV8xkHX5rc7AV-44" edge="1">
          <mxGeometry width="50" height="50" relative="1" as="geometry">
            <mxPoint x="676.5999999999999" y="478.1400000000001" as="sourcePoint" />
            <mxPoint x="1532.5499999999997" y="477.3299999999999" as="targetPoint" />
          </mxGeometry>
        </mxCell>
        <mxCell id="_NXr81rbV8xkHX5rc7AV-47" value="Вывод ошибка" style="html=1;verticalAlign=bottom;endArrow=open;dashed=1;endSize=8;curved=0;rounded=0;" parent="1" edge="1">
          <mxGeometry relative="1" as="geometry">
            <mxPoint x="970" y="513" as="sourcePoint" />
            <mxPoint x="1065" y="513" as="targetPoint" />
          </mxGeometry>
        </mxCell>
        <mxCell id="_NXr81rbV8xkHX5rc7AV-48" value="Данные корректны" style="html=1;verticalAlign=bottom;endArrow=open;dashed=1;endSize=8;curved=0;rounded=0;" parent="1" edge="1">
          <mxGeometry relative="1" as="geometry">
            <mxPoint x="1505.0000000000005" y="446" as="sourcePoint" />
            <mxPoint x="970" y="446" as="targetPoint" />
          </mxGeometry>
        </mxCell>
        <mxCell id="_NXr81rbV8xkHX5rc7AV-49" value="Данные некорректны" style="html=1;verticalAlign=bottom;endArrow=open;dashed=1;endSize=8;curved=0;rounded=0;" parent="1" edge="1">
          <mxGeometry relative="1" as="geometry">
            <mxPoint x="1505.0000000000005" y="495" as="sourcePoint" />
            <mxPoint x="970" y="495" as="targetPoint" />
          </mxGeometry>
        </mxCell>
        <mxCell id="_NXr81rbV8xkHX5rc7AV-50" value="&lt;span style=&quot;font-size: 10px;&quot;&gt;Логин и пароль&lt;br&gt;&amp;nbsp;корректны&lt;/span&gt;" style="text;html=1;align=center;verticalAlign=middle;resizable=0;points=[];autosize=1;strokeColor=none;fillColor=none;" parent="1" vertex="1">
          <mxGeometry x="870" y="430" width="90" height="40" as="geometry" />
        </mxCell>
        <mxCell id="_NXr81rbV8xkHX5rc7AV-51" value="&lt;span style=&quot;font-size: 10px;&quot;&gt;Логин и пароль&lt;br&gt;&amp;nbsp;не корректны&lt;/span&gt;" style="text;html=1;align=center;verticalAlign=middle;resizable=0;points=[];autosize=1;strokeColor=none;fillColor=none;" parent="1" vertex="1">
          <mxGeometry x="870" y="480" width="90" height="40" as="geometry" />
        </mxCell>
        <mxCell id="_NXr81rbV8xkHX5rc7AV-53" value="Запрос на &lt;br&gt;изменение прав" style="html=1;verticalAlign=bottom;endArrow=block;curved=0;rounded=0;" parent="1" source="_NXr81rbV8xkHX5rc7AV-21" edge="1">
          <mxGeometry width="80" relative="1" as="geometry">
            <mxPoint x="760" y="640.66" as="sourcePoint" />
            <mxPoint x="860" y="615" as="targetPoint" />
          </mxGeometry>
        </mxCell>
        <mxCell id="_NXr81rbV8xkHX5rc7AV-61" value="Сохранение запроса" style="html=1;verticalAlign=bottom;endArrow=block;curved=0;rounded=0;" parent="1" source="_NXr81rbV8xkHX5rc7AV-55" target="_NXr81rbV8xkHX5rc7AV-57" edge="1">
          <mxGeometry width="80" relative="1" as="geometry">
            <mxPoint x="1100" y="620" as="sourcePoint" />
            <mxPoint x="1180" y="620" as="targetPoint" />
          </mxGeometry>
        </mxCell>
        <mxCell id="_NXr81rbV8xkHX5rc7AV-62" value="Уведомление о сохранении" style="html=1;verticalAlign=bottom;endArrow=open;dashed=1;endSize=8;curved=0;rounded=0;" parent="1" source="_NXr81rbV8xkHX5rc7AV-57" edge="1">
          <mxGeometry relative="1" as="geometry">
            <mxPoint x="1510.0000000000005" y="787" as="sourcePoint" />
            <mxPoint x="1280" y="787" as="targetPoint" />
          </mxGeometry>
        </mxCell>
        <mxCell id="_NXr81rbV8xkHX5rc7AV-64" value="Уведомление о запросе" style="html=1;verticalAlign=bottom;endArrow=block;curved=0;rounded=0;" parent="1" edge="1">
          <mxGeometry width="80" relative="1" as="geometry">
            <mxPoint x="1270" y="795" as="sourcePoint" />
            <mxPoint x="1075" y="795" as="targetPoint" />
          </mxGeometry>
        </mxCell>
        <mxCell id="_NXr81rbV8xkHX5rc7AV-65" value="alt" style="shape=umlFrame;whiteSpace=wrap;html=1;pointerEvents=0;" parent="1" vertex="1">
          <mxGeometry x="720" y="860" width="820" height="200" as="geometry" />
        </mxCell>
        <mxCell id="_NXr81rbV8xkHX5rc7AV-68" value="Одобрение&lt;br&gt;&amp;nbsp;заявки" style="html=1;verticalAlign=bottom;endArrow=open;dashed=1;endSize=8;curved=0;rounded=0;" parent="1" edge="1">
          <mxGeometry relative="1" as="geometry">
            <mxPoint x="1165" y="889" as="sourcePoint" />
            <mxPoint x="1075" y="889" as="targetPoint" />
          </mxGeometry>
        </mxCell>
        <mxCell id="_NXr81rbV8xkHX5rc7AV-67" value="Рассмотрение&lt;br&gt;&amp;nbsp;заявки" style="html=1;verticalAlign=bottom;endArrow=block;curved=0;rounded=0;" parent="1" edge="1">
          <mxGeometry width="80" relative="1" as="geometry">
            <mxPoint x="1075" y="844" as="sourcePoint" />
            <mxPoint x="1165" y="844" as="targetPoint" />
          </mxGeometry>
        </mxCell>
        <mxCell id="_NXr81rbV8xkHX5rc7AV-71" value="" style="endArrow=none;dashed=1;html=1;rounded=0;exitX=-0.001;exitY=0.499;exitDx=0;exitDy=0;exitPerimeter=0;entryX=1.002;entryY=0.496;entryDx=0;entryDy=0;entryPerimeter=0;" parent="1" edge="1">
          <mxGeometry width="50" height="50" relative="1" as="geometry">
            <mxPoint x="719.1799999999998" y="968.8000000000002" as="sourcePoint" />
            <mxPoint x="1541.6399999999999" y="968.2000000000003" as="targetPoint" />
          </mxGeometry>
        </mxCell>
        <mxCell id="_NXr81rbV8xkHX5rc7AV-72" value="Одобрение заявки" style="html=1;verticalAlign=bottom;endArrow=block;curved=0;rounded=0;" parent="1" edge="1">
          <mxGeometry width="80" relative="1" as="geometry">
            <mxPoint x="1075" y="917" as="sourcePoint" />
            <mxPoint x="1270" y="917" as="targetPoint" />
          </mxGeometry>
        </mxCell>
        <mxCell id="_NXr81rbV8xkHX5rc7AV-76" value="" style="html=1;points=[[0,0,0,0,5],[0,1,0,0,-5],[1,0,0,0,5],[1,1,0,0,-5]];perimeter=orthogonalPerimeter;outlineConnect=0;targetShapes=umlLifeline;portConstraint=eastwest;newEdgeStyle={&quot;curved&quot;:0,&quot;rounded&quot;:0};" parent="1" vertex="1">
          <mxGeometry x="1505" y="875" width="10" height="165" as="geometry" />
        </mxCell>
        <mxCell id="_NXr81rbV8xkHX5rc7AV-77" value="Внесение изменений" style="html=1;verticalAlign=bottom;endArrow=block;curved=0;rounded=0;" parent="1" edge="1">
          <mxGeometry width="80" relative="1" as="geometry">
            <mxPoint x="1280" y="924" as="sourcePoint" />
            <mxPoint x="1505.0000000000005" y="924" as="targetPoint" />
          </mxGeometry>
        </mxCell>
        <mxCell id="_NXr81rbV8xkHX5rc7AV-78" value="Уведомление о изменении" style="html=1;verticalAlign=bottom;endArrow=open;dashed=1;endSize=8;curved=0;rounded=0;" parent="1" edge="1">
          <mxGeometry relative="1" as="geometry">
            <mxPoint x="1505.0000000000005" y="943" as="sourcePoint" />
            <mxPoint x="1280" y="943" as="targetPoint" />
          </mxGeometry>
        </mxCell>
        <mxCell id="_NXr81rbV8xkHX5rc7AV-79" value="Уведомление о изменении" style="html=1;verticalAlign=bottom;endArrow=open;dashed=1;endSize=8;curved=0;rounded=0;" parent="1" edge="1">
          <mxGeometry relative="1" as="geometry">
            <mxPoint x="1270" y="947" as="sourcePoint" />
            <mxPoint x="870" y="947" as="targetPoint" />
          </mxGeometry>
        </mxCell>
        <mxCell id="_NXr81rbV8xkHX5rc7AV-81" value="Принятие&lt;br&gt;уведомления" style="html=1;verticalAlign=bottom;endArrow=open;dashed=1;endSize=8;curved=0;rounded=0;" parent="1" edge="1">
          <mxGeometry relative="1" as="geometry">
            <mxPoint x="859" y="956" as="sourcePoint" />
            <mxPoint x="764" y="956" as="targetPoint" />
          </mxGeometry>
        </mxCell>
        <mxCell id="_NXr81rbV8xkHX5rc7AV-83" value="Отклонение&lt;br&gt;&amp;nbsp;заявки" style="html=1;verticalAlign=bottom;endArrow=open;dashed=1;endSize=8;curved=0;rounded=0;" parent="1" edge="1">
          <mxGeometry relative="1" as="geometry">
            <mxPoint x="1165" y="999" as="sourcePoint" />
            <mxPoint x="1075" y="999" as="targetPoint" />
          </mxGeometry>
        </mxCell>
        <mxCell id="_NXr81rbV8xkHX5rc7AV-84" value="Отклонение заявки" style="html=1;verticalAlign=bottom;endArrow=block;curved=0;rounded=0;" parent="1" edge="1">
          <mxGeometry width="80" relative="1" as="geometry">
            <mxPoint x="1075" y="1015" as="sourcePoint" />
            <mxPoint x="1270" y="1015" as="targetPoint" />
          </mxGeometry>
        </mxCell>
        <mxCell id="_NXr81rbV8xkHX5rc7AV-86" value="Уведомление об отклонении" style="html=1;verticalAlign=bottom;endArrow=open;dashed=1;endSize=8;curved=0;rounded=0;" parent="1" edge="1">
          <mxGeometry relative="1" as="geometry">
            <mxPoint x="1270" y="1033" as="sourcePoint" />
            <mxPoint x="870" y="1033" as="targetPoint" />
          </mxGeometry>
        </mxCell>
        <mxCell id="_NXr81rbV8xkHX5rc7AV-87" value="Принятие&lt;br&gt;уведомления" style="html=1;verticalAlign=bottom;endArrow=open;dashed=1;endSize=8;curved=0;rounded=0;" parent="1" edge="1">
          <mxGeometry relative="1" as="geometry">
            <mxPoint x="860" y="1042" as="sourcePoint" />
            <mxPoint x="765" y="1042" as="targetPoint" />
          </mxGeometry>
        </mxCell>
        <mxCell id="_NXr81rbV8xkHX5rc7AV-162" value="Проверка данных" style="html=1;verticalAlign=bottom;endArrow=block;curved=0;rounded=0;" parent="1" edge="1">
          <mxGeometry width="80" relative="1" as="geometry">
            <mxPoint x="2074.55" y="453.5" as="sourcePoint" />
            <mxPoint x="2609.55" y="453.5" as="targetPoint" />
          </mxGeometry>
        </mxCell>
        <mxCell id="_NXr81rbV8xkHX5rc7AV-163" value="Данные некорректны" style="html=1;verticalAlign=bottom;endArrow=open;dashed=1;endSize=8;curved=0;rounded=0;" parent="1" edge="1">
          <mxGeometry relative="1" as="geometry">
            <mxPoint x="2609.55" y="334.65999999999985" as="sourcePoint" />
            <mxPoint x="2074.55" y="334.65999999999985" as="targetPoint" />
          </mxGeometry>
        </mxCell>
        <mxCell id="_NXr81rbV8xkHX5rc7AV-164" value="Данные корректны" style="html=1;verticalAlign=bottom;endArrow=open;dashed=1;endSize=8;curved=0;rounded=0;" parent="1" edge="1">
          <mxGeometry relative="1" as="geometry">
            <mxPoint x="2609.55" y="277.9999999999999" as="sourcePoint" />
            <mxPoint x="2074.55" y="277.9999999999999" as="targetPoint" />
          </mxGeometry>
        </mxCell>
        <mxCell id="_NXr81rbV8xkHX5rc7AV-165" value="Проверка данных" style="html=1;verticalAlign=bottom;endArrow=block;curved=0;rounded=0;exitX=0.997;exitY=0.26;exitDx=0;exitDy=0;exitPerimeter=0;" parent="1" edge="1">
          <mxGeometry width="80" relative="1" as="geometry">
            <mxPoint x="2074.5199999999995" y="241.9999999999999" as="sourcePoint" />
            <mxPoint x="2609.55" y="241.9999999999999" as="targetPoint" />
          </mxGeometry>
        </mxCell>
        <mxCell id="_NXr81rbV8xkHX5rc7AV-166" value="" style="shape=umlLifeline;perimeter=lifelinePerimeter;whiteSpace=wrap;html=1;container=1;dropTarget=0;collapsible=0;recursiveResize=0;outlineConnect=0;portConstraint=eastwest;newEdgeStyle={&quot;curved&quot;:0,&quot;rounded&quot;:0};participant=umlActor;" parent="1" vertex="1">
          <mxGeometry x="1854.55" y="100" width="20" height="330" as="geometry" />
        </mxCell>
        <mxCell id="_NXr81rbV8xkHX5rc7AV-167" value="Пользователь" style="text;html=1;strokeColor=none;fillColor=none;align=center;verticalAlign=middle;whiteSpace=wrap;rounded=0;" parent="1" vertex="1">
          <mxGeometry x="1834.55" y="60" width="60" height="30" as="geometry" />
        </mxCell>
        <mxCell id="_NXr81rbV8xkHX5rc7AV-168" value="" style="shape=umlLifeline;perimeter=lifelinePerimeter;whiteSpace=wrap;html=1;container=1;dropTarget=0;collapsible=0;recursiveResize=0;outlineConnect=0;portConstraint=eastwest;newEdgeStyle={&quot;curved&quot;:0,&quot;rounded&quot;:0};participant=umlActor;" parent="1" vertex="1">
          <mxGeometry x="2264.55" y="100" width="20" height="1010" as="geometry" />
        </mxCell>
        <mxCell id="_NXr81rbV8xkHX5rc7AV-169" value="" style="html=1;points=[[0,0,0,0,5],[0,1,0,0,-5],[1,0,0,0,5],[1,1,0,0,-5]];perimeter=orthogonalPerimeter;outlineConnect=0;targetShapes=umlLifeline;portConstraint=eastwest;newEdgeStyle={&quot;curved&quot;:0,&quot;rounded&quot;:0};" parent="_NXr81rbV8xkHX5rc7AV-168" vertex="1">
          <mxGeometry x="5" y="70" width="10" height="900" as="geometry" />
        </mxCell>
        <mxCell id="_NXr81rbV8xkHX5rc7AV-170" value="Администратор" style="text;html=1;strokeColor=none;fillColor=none;align=center;verticalAlign=middle;whiteSpace=wrap;rounded=0;" parent="1" vertex="1">
          <mxGeometry x="2244.55" y="60" width="60" height="30" as="geometry" />
        </mxCell>
        <mxCell id="_NXr81rbV8xkHX5rc7AV-171" value="Par" style="shape=umlFrame;whiteSpace=wrap;html=1;pointerEvents=0;" parent="1" vertex="1">
          <mxGeometry x="1764.55" y="150" width="910" height="440" as="geometry" />
        </mxCell>
        <mxCell id="_NXr81rbV8xkHX5rc7AV-172" value="" style="shape=umlLifeline;perimeter=lifelinePerimeter;whiteSpace=wrap;html=1;container=1;dropTarget=0;collapsible=0;recursiveResize=0;outlineConnect=0;portConstraint=eastwest;newEdgeStyle={&quot;curved&quot;:0,&quot;rounded&quot;:0};participant=umlBoundary;" parent="1" vertex="1">
          <mxGeometry x="1944.55" y="100" width="50" height="1020" as="geometry" />
        </mxCell>
        <mxCell id="_NXr81rbV8xkHX5rc7AV-173" value="" style="html=1;points=[[0,0,0,0,5],[0,1,0,0,-5],[1,0,0,0,5],[1,1,0,0,-5]];perimeter=orthogonalPerimeter;outlineConnect=0;targetShapes=umlLifeline;portConstraint=eastwest;newEdgeStyle={&quot;curved&quot;:0,&quot;rounded&quot;:0};" parent="_NXr81rbV8xkHX5rc7AV-172" vertex="1">
          <mxGeometry x="20" y="90" width="10" height="930" as="geometry" />
        </mxCell>
        <mxCell id="_NXr81rbV8xkHX5rc7AV-175" value="" style="shape=umlLifeline;perimeter=lifelinePerimeter;whiteSpace=wrap;html=1;container=1;dropTarget=0;collapsible=0;recursiveResize=0;outlineConnect=0;portConstraint=eastwest;newEdgeStyle={&quot;curved&quot;:0,&quot;rounded&quot;:0};participant=umlControl;" parent="1" vertex="1">
          <mxGeometry x="2359.55" y="100" width="40" height="1030" as="geometry" />
        </mxCell>
        <mxCell id="_NXr81rbV8xkHX5rc7AV-176" value="" style="html=1;points=[[0,0,0,0,5],[0,1,0,0,-5],[1,0,0,0,5],[1,1,0,0,-5]];perimeter=orthogonalPerimeter;outlineConnect=0;targetShapes=umlLifeline;portConstraint=eastwest;newEdgeStyle={&quot;curved&quot;:0,&quot;rounded&quot;:0};" parent="_NXr81rbV8xkHX5rc7AV-175" vertex="1">
          <mxGeometry x="15" y="610" width="10" height="120" as="geometry" />
        </mxCell>
        <mxCell id="_NXr81rbV8xkHX5rc7AV-177" value="" style="html=1;points=[[0,0,0,0,5],[0,1,0,0,-5],[1,0,0,0,5],[1,1,0,0,-5]];perimeter=orthogonalPerimeter;outlineConnect=0;targetShapes=umlLifeline;portConstraint=eastwest;newEdgeStyle={&quot;curved&quot;:0,&quot;rounded&quot;:0};" parent="_NXr81rbV8xkHX5rc7AV-175" vertex="1">
          <mxGeometry x="15" y="800" width="10" height="180" as="geometry" />
        </mxCell>
        <mxCell id="_NXr81rbV8xkHX5rc7AV-178" value="Пользовательское&lt;br&gt;окно&amp;nbsp;" style="text;html=1;strokeColor=none;fillColor=none;align=center;verticalAlign=middle;whiteSpace=wrap;rounded=0;" parent="1" vertex="1">
          <mxGeometry x="1939.55" y="60" width="60" height="30" as="geometry" />
        </mxCell>
        <mxCell id="_NXr81rbV8xkHX5rc7AV-179" value="" style="shape=umlLifeline;perimeter=lifelinePerimeter;whiteSpace=wrap;html=1;container=1;dropTarget=0;collapsible=0;recursiveResize=0;outlineConnect=0;portConstraint=eastwest;newEdgeStyle={&quot;curved&quot;:0,&quot;rounded&quot;:0};participant=umlEntity;" parent="1" vertex="1">
          <mxGeometry x="2594.55" y="100" width="40" height="1010" as="geometry" />
        </mxCell>
        <mxCell id="_NXr81rbV8xkHX5rc7AV-180" value="" style="html=1;points=[[0,0,0,0,5],[0,1,0,0,-5],[1,0,0,0,5],[1,1,0,0,-5]];perimeter=orthogonalPerimeter;outlineConnect=0;targetShapes=umlLifeline;portConstraint=eastwest;newEdgeStyle={&quot;curved&quot;:0,&quot;rounded&quot;:0};" parent="_NXr81rbV8xkHX5rc7AV-179" vertex="1">
          <mxGeometry x="15" y="120" width="10" height="130" as="geometry" />
        </mxCell>
        <mxCell id="_NXr81rbV8xkHX5rc7AV-181" value="" style="html=1;points=[[0,0,0,0,5],[0,1,0,0,-5],[1,0,0,0,5],[1,1,0,0,-5]];perimeter=orthogonalPerimeter;outlineConnect=0;targetShapes=umlLifeline;portConstraint=eastwest;newEdgeStyle={&quot;curved&quot;:0,&quot;rounded&quot;:0};" parent="_NXr81rbV8xkHX5rc7AV-179" vertex="1">
          <mxGeometry x="15" y="300" width="10" height="170" as="geometry" />
        </mxCell>
        <mxCell id="_NXr81rbV8xkHX5rc7AV-182" value="" style="html=1;points=[[0,0,0,0,5],[0,1,0,0,-5],[1,0,0,0,5],[1,1,0,0,-5]];perimeter=orthogonalPerimeter;outlineConnect=0;targetShapes=umlLifeline;portConstraint=eastwest;newEdgeStyle={&quot;curved&quot;:0,&quot;rounded&quot;:0};" parent="_NXr81rbV8xkHX5rc7AV-179" vertex="1">
          <mxGeometry x="15" y="680" width="10" height="40" as="geometry" />
        </mxCell>
        <mxCell id="_NXr81rbV8xkHX5rc7AV-183" value="Подсистема управления ролями" style="text;html=1;strokeColor=none;fillColor=none;align=center;verticalAlign=middle;whiteSpace=wrap;rounded=0;" parent="1" vertex="1">
          <mxGeometry x="2349.55" y="60" width="60" height="30" as="geometry" />
        </mxCell>
        <mxCell id="_NXr81rbV8xkHX5rc7AV-184" value="База данных" style="text;html=1;strokeColor=none;fillColor=none;align=center;verticalAlign=middle;whiteSpace=wrap;rounded=0;" parent="1" vertex="1">
          <mxGeometry x="2584.55" y="60" width="60" height="30" as="geometry" />
        </mxCell>
        <mxCell id="_NXr81rbV8xkHX5rc7AV-185" value="" style="shape=umlLifeline;perimeter=lifelinePerimeter;whiteSpace=wrap;html=1;container=1;dropTarget=0;collapsible=0;recursiveResize=0;outlineConnect=0;portConstraint=eastwest;newEdgeStyle={&quot;curved&quot;:0,&quot;rounded&quot;:0};participant=umlControl;" parent="1" vertex="1">
          <mxGeometry x="2049.55" y="100" width="40" height="540" as="geometry" />
        </mxCell>
        <mxCell id="_NXr81rbV8xkHX5rc7AV-186" value="" style="html=1;points=[[0,0,0,0,5],[0,1,0,0,-5],[1,0,0,0,5],[1,1,0,0,-5]];perimeter=orthogonalPerimeter;outlineConnect=0;targetShapes=umlLifeline;portConstraint=eastwest;newEdgeStyle={&quot;curved&quot;:0,&quot;rounded&quot;:0};" parent="_NXr81rbV8xkHX5rc7AV-185" vertex="1">
          <mxGeometry x="15" y="130" width="10" height="120" as="geometry" />
        </mxCell>
        <mxCell id="_NXr81rbV8xkHX5rc7AV-187" value="" style="html=1;points=[[0,0,0,0,5],[0,1,0,0,-5],[1,0,0,0,5],[1,1,0,0,-5]];perimeter=orthogonalPerimeter;outlineConnect=0;targetShapes=umlLifeline;portConstraint=eastwest;newEdgeStyle={&quot;curved&quot;:0,&quot;rounded&quot;:0};" parent="_NXr81rbV8xkHX5rc7AV-185" vertex="1">
          <mxGeometry x="15" y="340" width="10" height="130" as="geometry" />
        </mxCell>
        <mxCell id="_NXr81rbV8xkHX5rc7AV-188" value="" style="shape=umlDestroy;whiteSpace=wrap;html=1;strokeWidth=3;targetShapes=umlLifeline;" parent="_NXr81rbV8xkHX5rc7AV-185" vertex="1">
          <mxGeometry x="5" y="520" width="30" height="30" as="geometry" />
        </mxCell>
        <mxCell id="_NXr81rbV8xkHX5rc7AV-189" value="Подсистема авторизации" style="text;html=1;strokeColor=none;fillColor=none;align=center;verticalAlign=middle;whiteSpace=wrap;rounded=0;" parent="1" vertex="1">
          <mxGeometry x="2039.55" y="60" width="60" height="30" as="geometry" />
        </mxCell>
        <mxCell id="_NXr81rbV8xkHX5rc7AV-190" value="" style="shape=umlLifeline;perimeter=lifelinePerimeter;whiteSpace=wrap;html=1;container=1;dropTarget=0;collapsible=0;recursiveResize=0;outlineConnect=0;portConstraint=eastwest;newEdgeStyle={&quot;curved&quot;:0,&quot;rounded&quot;:0};participant=umlBoundary;" parent="1" vertex="1">
          <mxGeometry x="2149.55" y="100" width="50" height="1020" as="geometry" />
        </mxCell>
        <mxCell id="_NXr81rbV8xkHX5rc7AV-191" value="" style="html=1;points=[[0,0,0,0,5],[0,1,0,0,-5],[1,0,0,0,5],[1,1,0,0,-5]];perimeter=orthogonalPerimeter;outlineConnect=0;targetShapes=umlLifeline;portConstraint=eastwest;newEdgeStyle={&quot;curved&quot;:0,&quot;rounded&quot;:0};" parent="_NXr81rbV8xkHX5rc7AV-190" vertex="1">
          <mxGeometry x="20" y="90" width="10" height="930" as="geometry" />
        </mxCell>
        <mxCell id="_NXr81rbV8xkHX5rc7AV-193" value="Окно для администратора" style="text;html=1;strokeColor=none;fillColor=none;align=center;verticalAlign=middle;whiteSpace=wrap;rounded=0;" parent="1" vertex="1">
          <mxGeometry x="2144.55" y="60" width="60" height="30" as="geometry" />
        </mxCell>
        <mxCell id="_NXr81rbV8xkHX5rc7AV-194" value="" style="html=1;points=[[0,0,0,0,5],[0,1,0,0,-5],[1,0,0,0,5],[1,1,0,0,-5]];perimeter=orthogonalPerimeter;outlineConnect=0;targetShapes=umlLifeline;portConstraint=eastwest;newEdgeStyle={&quot;curved&quot;:0,&quot;rounded&quot;:0};" parent="1" vertex="1">
          <mxGeometry x="1859.55" y="170" width="10" height="950" as="geometry" />
        </mxCell>
        <mxCell id="_NXr81rbV8xkHX5rc7AV-195" value="Вход" style="html=1;verticalAlign=bottom;endArrow=block;curved=0;rounded=0;entryX=0;entryY=0;entryDx=0;entryDy=5;entryPerimeter=0;" parent="1" source="_NXr81rbV8xkHX5rc7AV-194" target="_NXr81rbV8xkHX5rc7AV-173" edge="1">
          <mxGeometry width="80" relative="1" as="geometry">
            <mxPoint x="2184.55" y="280" as="sourcePoint" />
            <mxPoint x="2264.55" y="280" as="targetPoint" />
          </mxGeometry>
        </mxCell>
        <mxCell id="_NXr81rbV8xkHX5rc7AV-196" value="Вход" style="html=1;verticalAlign=bottom;endArrow=block;curved=0;rounded=0;" parent="1" edge="1">
          <mxGeometry width="80" relative="1" as="geometry">
            <mxPoint x="2269.55" y="415.9999999999999" as="sourcePoint" />
            <mxPoint x="2179.55" y="415.9999999999999" as="targetPoint" />
          </mxGeometry>
        </mxCell>
        <mxCell id="_NXr81rbV8xkHX5rc7AV-197" value="" style="endArrow=none;dashed=1;html=1;rounded=0;exitX=-0.005;exitY=0.503;exitDx=0;exitDy=0;exitPerimeter=0;entryX=1.004;entryY=0.498;entryDx=0;entryDy=0;entryPerimeter=0;" parent="1" source="_NXr81rbV8xkHX5rc7AV-171" target="_NXr81rbV8xkHX5rc7AV-171" edge="1">
          <mxGeometry width="50" height="50" relative="1" as="geometry">
            <mxPoint x="2194.55" y="310" as="sourcePoint" />
            <mxPoint x="2244.55" y="260" as="targetPoint" />
          </mxGeometry>
        </mxCell>
        <mxCell id="_NXr81rbV8xkHX5rc7AV-198" value="Передача данных" style="html=1;verticalAlign=bottom;endArrow=block;curved=0;rounded=0;entryX=0;entryY=0;entryDx=0;entryDy=5;entryPerimeter=0;" parent="1" edge="1">
          <mxGeometry width="80" relative="1" as="geometry">
            <mxPoint x="1974.55" y="241.9999999999999" as="sourcePoint" />
            <mxPoint x="2064.55" y="241.9999999999999" as="targetPoint" />
          </mxGeometry>
        </mxCell>
        <mxCell id="_NXr81rbV8xkHX5rc7AV-199" value="Передача данных" style="html=1;verticalAlign=bottom;endArrow=block;curved=0;rounded=0;" parent="1" edge="1">
          <mxGeometry width="80" relative="1" as="geometry">
            <mxPoint x="2169.55" y="443" as="sourcePoint" />
            <mxPoint x="2074.55" y="443" as="targetPoint" />
          </mxGeometry>
        </mxCell>
        <mxCell id="_NXr81rbV8xkHX5rc7AV-200" value="Пропуск в систему" style="html=1;verticalAlign=bottom;endArrow=open;dashed=1;endSize=8;curved=0;rounded=0;" parent="1" target="_NXr81rbV8xkHX5rc7AV-173" edge="1">
          <mxGeometry relative="1" as="geometry">
            <mxPoint x="2064.55" y="286.9999999999999" as="sourcePoint" />
            <mxPoint x="1869.55" y="286.9999999999999" as="targetPoint" />
          </mxGeometry>
        </mxCell>
        <mxCell id="_NXr81rbV8xkHX5rc7AV-201" value="Пропуск в систему" style="html=1;verticalAlign=bottom;endArrow=open;dashed=1;endSize=8;curved=0;rounded=0;" parent="1" edge="1">
          <mxGeometry relative="1" as="geometry">
            <mxPoint x="2074.55" y="496.9999999999999" as="sourcePoint" />
            <mxPoint x="2169.55" y="497" as="targetPoint" />
          </mxGeometry>
        </mxCell>
        <mxCell id="_NXr81rbV8xkHX5rc7AV-202" value="alt" style="shape=umlFrame;whiteSpace=wrap;html=1;pointerEvents=0;" parent="1" vertex="1">
          <mxGeometry x="1784.55" y="250" width="850" height="110" as="geometry" />
        </mxCell>
        <mxCell id="_NXr81rbV8xkHX5rc7AV-203" value="" style="endArrow=none;dashed=1;html=1;rounded=0;exitX=-0.002;exitY=0.641;exitDx=0;exitDy=0;exitPerimeter=0;entryX=1.005;entryY=0.645;entryDx=0;entryDy=0;entryPerimeter=0;" parent="1" edge="1">
          <mxGeometry width="50" height="50" relative="1" as="geometry">
            <mxPoint x="1782.8499999999997" y="314.5099999999999" as="sourcePoint" />
            <mxPoint x="2638.8" y="314.94999999999993" as="targetPoint" />
          </mxGeometry>
        </mxCell>
        <mxCell id="_NXr81rbV8xkHX5rc7AV-204" value="&lt;span style=&quot;font-size: 10px;&quot;&gt;Логин и пароль&lt;br&gt;&amp;nbsp;корректны&lt;/span&gt;" style="text;html=1;align=center;verticalAlign=middle;resizable=0;points=[];autosize=1;strokeColor=none;fillColor=none;" parent="1" vertex="1">
          <mxGeometry x="1779.55" y="275" width="90" height="40" as="geometry" />
        </mxCell>
        <mxCell id="_NXr81rbV8xkHX5rc7AV-205" value="&lt;span style=&quot;font-size: 10px;&quot;&gt;Логин и пароль&lt;br&gt;&amp;nbsp;не корректны&lt;/span&gt;" style="text;html=1;align=center;verticalAlign=middle;resizable=0;points=[];autosize=1;strokeColor=none;fillColor=none;" parent="1" vertex="1">
          <mxGeometry x="1779.55" y="315" width="90" height="40" as="geometry" />
        </mxCell>
        <mxCell id="_NXr81rbV8xkHX5rc7AV-206" value="Вывод ошибка" style="html=1;verticalAlign=bottom;endArrow=open;dashed=1;endSize=8;curved=0;rounded=0;" parent="1" target="_NXr81rbV8xkHX5rc7AV-173" edge="1">
          <mxGeometry relative="1" as="geometry">
            <mxPoint x="2064.55" y="336.9999999999999" as="sourcePoint" />
            <mxPoint x="1869.55" y="336.9999999999999" as="targetPoint" />
          </mxGeometry>
        </mxCell>
        <mxCell id="_NXr81rbV8xkHX5rc7AV-207" value="alt" style="shape=umlFrame;whiteSpace=wrap;html=1;pointerEvents=0;" parent="1" vertex="1">
          <mxGeometry x="1924.55" y="460" width="710" height="90" as="geometry" />
        </mxCell>
        <mxCell id="_NXr81rbV8xkHX5rc7AV-208" value="" style="endArrow=none;dashed=1;html=1;rounded=0;exitX=-0.001;exitY=0.554;exitDx=0;exitDy=0;exitPerimeter=0;entryX=1.004;entryY=0.539;entryDx=0;entryDy=0;entryPerimeter=0;" parent="1" source="_NXr81rbV8xkHX5rc7AV-207" target="_NXr81rbV8xkHX5rc7AV-207" edge="1">
          <mxGeometry width="50" height="50" relative="1" as="geometry">
            <mxPoint x="1781.1499999999999" y="508.1400000000001" as="sourcePoint" />
            <mxPoint x="2637.0999999999995" y="507.3299999999999" as="targetPoint" />
          </mxGeometry>
        </mxCell>
        <mxCell id="_NXr81rbV8xkHX5rc7AV-209" value="Вывод ошибка" style="html=1;verticalAlign=bottom;endArrow=open;dashed=1;endSize=8;curved=0;rounded=0;" parent="1" edge="1">
          <mxGeometry relative="1" as="geometry">
            <mxPoint x="2074.55" y="543" as="sourcePoint" />
            <mxPoint x="2169.55" y="543" as="targetPoint" />
          </mxGeometry>
        </mxCell>
        <mxCell id="_NXr81rbV8xkHX5rc7AV-210" value="Данные корректны" style="html=1;verticalAlign=bottom;endArrow=open;dashed=1;endSize=8;curved=0;rounded=0;" parent="1" edge="1">
          <mxGeometry relative="1" as="geometry">
            <mxPoint x="2609.55" y="476" as="sourcePoint" />
            <mxPoint x="2074.55" y="476" as="targetPoint" />
          </mxGeometry>
        </mxCell>
        <mxCell id="_NXr81rbV8xkHX5rc7AV-211" value="Данные некорректны" style="html=1;verticalAlign=bottom;endArrow=open;dashed=1;endSize=8;curved=0;rounded=0;" parent="1" edge="1">
          <mxGeometry relative="1" as="geometry">
            <mxPoint x="2609.55" y="525" as="sourcePoint" />
            <mxPoint x="2074.55" y="525" as="targetPoint" />
          </mxGeometry>
        </mxCell>
        <mxCell id="_NXr81rbV8xkHX5rc7AV-212" value="&lt;span style=&quot;font-size: 10px;&quot;&gt;Логин и пароль&lt;br&gt;&amp;nbsp;корректны&lt;/span&gt;" style="text;html=1;align=center;verticalAlign=middle;resizable=0;points=[];autosize=1;strokeColor=none;fillColor=none;" parent="1" vertex="1">
          <mxGeometry x="1974.55" y="460" width="90" height="40" as="geometry" />
        </mxCell>
        <mxCell id="_NXr81rbV8xkHX5rc7AV-213" value="&lt;span style=&quot;font-size: 10px;&quot;&gt;Логин и пароль&lt;br&gt;&amp;nbsp;не корректны&lt;/span&gt;" style="text;html=1;align=center;verticalAlign=middle;resizable=0;points=[];autosize=1;strokeColor=none;fillColor=none;" parent="1" vertex="1">
          <mxGeometry x="1974.55" y="510" width="90" height="40" as="geometry" />
        </mxCell>
        <mxCell id="_NXr81rbV8xkHX5rc7AV-214" value="Запрос на &lt;br&gt;изменение роли" style="html=1;verticalAlign=bottom;endArrow=block;curved=0;rounded=0;" parent="1" source="_NXr81rbV8xkHX5rc7AV-194" edge="1">
          <mxGeometry width="80" relative="1" as="geometry">
            <mxPoint x="1864.55" y="670.66" as="sourcePoint" />
            <mxPoint x="1964.5500000000002" y="645" as="targetPoint" />
          </mxGeometry>
        </mxCell>
        <mxCell id="_NXr81rbV8xkHX5rc7AV-215" value="Сохранение запроса" style="html=1;verticalAlign=bottom;endArrow=block;curved=0;rounded=0;" parent="1" source="_NXr81rbV8xkHX5rc7AV-176" target="_NXr81rbV8xkHX5rc7AV-182" edge="1">
          <mxGeometry width="80" relative="1" as="geometry">
            <mxPoint x="2204.55" y="650" as="sourcePoint" />
            <mxPoint x="2284.55" y="650" as="targetPoint" />
          </mxGeometry>
        </mxCell>
        <mxCell id="_NXr81rbV8xkHX5rc7AV-216" value="Уведомление о сохранении" style="html=1;verticalAlign=bottom;endArrow=open;dashed=1;endSize=8;curved=0;rounded=0;" parent="1" source="_NXr81rbV8xkHX5rc7AV-182" edge="1">
          <mxGeometry relative="1" as="geometry">
            <mxPoint x="2614.55" y="817" as="sourcePoint" />
            <mxPoint x="2384.55" y="817" as="targetPoint" />
          </mxGeometry>
        </mxCell>
        <mxCell id="_NXr81rbV8xkHX5rc7AV-217" value="Уведомление о запросе" style="html=1;verticalAlign=bottom;endArrow=block;curved=0;rounded=0;" parent="1" edge="1">
          <mxGeometry width="80" relative="1" as="geometry">
            <mxPoint x="2374.55" y="825" as="sourcePoint" />
            <mxPoint x="2179.55" y="825" as="targetPoint" />
          </mxGeometry>
        </mxCell>
        <mxCell id="_NXr81rbV8xkHX5rc7AV-218" value="alt" style="shape=umlFrame;whiteSpace=wrap;html=1;pointerEvents=0;" parent="1" vertex="1">
          <mxGeometry x="1824.55" y="890" width="820" height="200" as="geometry" />
        </mxCell>
        <mxCell id="_NXr81rbV8xkHX5rc7AV-219" value="Одобрение&lt;br&gt;&amp;nbsp;заявки" style="html=1;verticalAlign=bottom;endArrow=open;dashed=1;endSize=8;curved=0;rounded=0;" parent="1" edge="1">
          <mxGeometry relative="1" as="geometry">
            <mxPoint x="2269.55" y="919" as="sourcePoint" />
            <mxPoint x="2179.55" y="919" as="targetPoint" />
          </mxGeometry>
        </mxCell>
        <mxCell id="_NXr81rbV8xkHX5rc7AV-220" value="Рассмотрение&lt;br&gt;&amp;nbsp;заявки" style="html=1;verticalAlign=bottom;endArrow=block;curved=0;rounded=0;" parent="1" edge="1">
          <mxGeometry width="80" relative="1" as="geometry">
            <mxPoint x="2179.55" y="874" as="sourcePoint" />
            <mxPoint x="2269.55" y="874" as="targetPoint" />
          </mxGeometry>
        </mxCell>
        <mxCell id="_NXr81rbV8xkHX5rc7AV-221" value="" style="endArrow=none;dashed=1;html=1;rounded=0;exitX=-0.001;exitY=0.499;exitDx=0;exitDy=0;exitPerimeter=0;entryX=1.002;entryY=0.496;entryDx=0;entryDy=0;entryPerimeter=0;" parent="1" edge="1">
          <mxGeometry width="50" height="50" relative="1" as="geometry">
            <mxPoint x="1823.7299999999998" y="998.8000000000002" as="sourcePoint" />
            <mxPoint x="2646.1899999999996" y="998.2000000000003" as="targetPoint" />
          </mxGeometry>
        </mxCell>
        <mxCell id="_NXr81rbV8xkHX5rc7AV-222" value="Одобрение заявки" style="html=1;verticalAlign=bottom;endArrow=block;curved=0;rounded=0;" parent="1" edge="1">
          <mxGeometry width="80" relative="1" as="geometry">
            <mxPoint x="2179.55" y="947" as="sourcePoint" />
            <mxPoint x="2374.55" y="947" as="targetPoint" />
          </mxGeometry>
        </mxCell>
        <mxCell id="_NXr81rbV8xkHX5rc7AV-223" value="" style="html=1;points=[[0,0,0,0,5],[0,1,0,0,-5],[1,0,0,0,5],[1,1,0,0,-5]];perimeter=orthogonalPerimeter;outlineConnect=0;targetShapes=umlLifeline;portConstraint=eastwest;newEdgeStyle={&quot;curved&quot;:0,&quot;rounded&quot;:0};" parent="1" vertex="1">
          <mxGeometry x="2609.55" y="905" width="10" height="165" as="geometry" />
        </mxCell>
        <mxCell id="_NXr81rbV8xkHX5rc7AV-224" value="Внесение изменений" style="html=1;verticalAlign=bottom;endArrow=block;curved=0;rounded=0;" parent="1" edge="1">
          <mxGeometry width="80" relative="1" as="geometry">
            <mxPoint x="2384.55" y="954" as="sourcePoint" />
            <mxPoint x="2609.55" y="954" as="targetPoint" />
          </mxGeometry>
        </mxCell>
        <mxCell id="_NXr81rbV8xkHX5rc7AV-225" value="Уведомление о изменении" style="html=1;verticalAlign=bottom;endArrow=open;dashed=1;endSize=8;curved=0;rounded=0;" parent="1" edge="1">
          <mxGeometry relative="1" as="geometry">
            <mxPoint x="2609.55" y="973" as="sourcePoint" />
            <mxPoint x="2384.55" y="973" as="targetPoint" />
          </mxGeometry>
        </mxCell>
        <mxCell id="_NXr81rbV8xkHX5rc7AV-226" value="Уведомление о изменении" style="html=1;verticalAlign=bottom;endArrow=open;dashed=1;endSize=8;curved=0;rounded=0;" parent="1" edge="1">
          <mxGeometry relative="1" as="geometry">
            <mxPoint x="2374.55" y="977" as="sourcePoint" />
            <mxPoint x="1974.55" y="977" as="targetPoint" />
          </mxGeometry>
        </mxCell>
        <mxCell id="_NXr81rbV8xkHX5rc7AV-228" value="Принятие&lt;br&gt;уведомления" style="html=1;verticalAlign=bottom;endArrow=open;dashed=1;endSize=8;curved=0;rounded=0;" parent="1" edge="1">
          <mxGeometry relative="1" as="geometry">
            <mxPoint x="1963.55" y="986" as="sourcePoint" />
            <mxPoint x="1868.55" y="986" as="targetPoint" />
          </mxGeometry>
        </mxCell>
        <mxCell id="_NXr81rbV8xkHX5rc7AV-229" value="Отклонение&lt;br&gt;&amp;nbsp;заявки" style="html=1;verticalAlign=bottom;endArrow=open;dashed=1;endSize=8;curved=0;rounded=0;" parent="1" edge="1">
          <mxGeometry relative="1" as="geometry">
            <mxPoint x="2269.55" y="1029" as="sourcePoint" />
            <mxPoint x="2179.55" y="1029" as="targetPoint" />
          </mxGeometry>
        </mxCell>
        <mxCell id="_NXr81rbV8xkHX5rc7AV-230" value="Отклонение заявки" style="html=1;verticalAlign=bottom;endArrow=block;curved=0;rounded=0;" parent="1" edge="1">
          <mxGeometry width="80" relative="1" as="geometry">
            <mxPoint x="2179.55" y="1045" as="sourcePoint" />
            <mxPoint x="2374.55" y="1045" as="targetPoint" />
          </mxGeometry>
        </mxCell>
        <mxCell id="_NXr81rbV8xkHX5rc7AV-232" value="Уведомление об отклонении" style="html=1;verticalAlign=bottom;endArrow=open;dashed=1;endSize=8;curved=0;rounded=0;" parent="1" edge="1">
          <mxGeometry relative="1" as="geometry">
            <mxPoint x="2374.55" y="1063" as="sourcePoint" />
            <mxPoint x="1974.55" y="1063" as="targetPoint" />
          </mxGeometry>
        </mxCell>
        <mxCell id="_NXr81rbV8xkHX5rc7AV-233" value="Принятие&lt;br&gt;уведомления" style="html=1;verticalAlign=bottom;endArrow=open;dashed=1;endSize=8;curved=0;rounded=0;" parent="1" edge="1">
          <mxGeometry relative="1" as="geometry">
            <mxPoint x="1964.55" y="1072" as="sourcePoint" />
            <mxPoint x="1869.55" y="1072" as="targetPoint" />
          </mxGeometry>
        </mxCell>
        <mxCell id="_NXr81rbV8xkHX5rc7AV-56" value="Отправка на формирование" style="html=1;verticalAlign=bottom;endArrow=block;curved=0;rounded=0;" parent="1" target="_NXr81rbV8xkHX5rc7AV-55" edge="1">
          <mxGeometry width="80" relative="1" as="geometry">
            <mxPoint x="870" y="680" as="sourcePoint" />
            <mxPoint x="1080" y="570" as="targetPoint" />
          </mxGeometry>
        </mxCell>
        <mxCell id="_NXr81rbV8xkHX5rc7AV-161" value="Отправка на формирование" style="html=1;verticalAlign=bottom;endArrow=block;curved=0;rounded=0;" parent="1" target="_NXr81rbV8xkHX5rc7AV-176" edge="1">
          <mxGeometry width="80" relative="1" as="geometry">
            <mxPoint x="1974.5500000000002" y="710" as="sourcePoint" />
            <mxPoint x="2184.55" y="600" as="targetPoint" />
          </mxGeometry>
        </mxCell>
      </root>
    </mxGraphModel>
  </diagram>
</mxfile>
